<svg xmlns="http://www.w3.org/2000/svg" xmlns:xlink="http://www.w3.org/1999/xlink" contentStyleType="text/css" height="2282px" preserveAspectRatio="none" style="width:741px;height:2282px;background:#FFFFFF;" version="1.1" viewBox="0 0 741 2282" width="741px" zoomAndPan="magnify"><defs/><g><!--entity Own--><g id="elem_Own"><path d="M8.5,1286.85 L49.5,1286.85 A3.75,3.75 0 0 1 52,1289.35 L59,1307.85 L73.5,1307.85 A2.5,2.5 0 0 1 76,1310.35 L76,1338.6469 A2.5,2.5 0 0 1 73.5,1341.1469 L8.5,1341.1469 A2.5,2.5 0 0 1 6,1338.6469 L6,1289.35 A2.5,2.5 0 0 1 8.5,1286.85 " fill="#F1F1F1" style="stroke:#181818;stroke-width:0.5;"/><line style="stroke:#181818;stroke-width:0.5;" x1="6" x2="59" y1="1307.85" y2="1307.85"/><text fill="#000000" font-family="sans-serif" font-size="14" lengthAdjust="spacing" textLength="31" x="16" y="1327.8451">Own</text></g><!--entity Combat--><g id="elem_Combat"><path d="M163.5,683.85 L204.5,683.85 A3.75,3.75 0 0 1 207,686.35 L214,704.85 L242.5,704.85 A2.5,2.5 0 0 1 245,707.35 L245,735.6469 A2.5,2.5 0 0 1 242.5,738.1469 L163.5,738.1469 A2.5,2.5 0 0 1 161,735.6469 L161,686.35 A2.5,2.5 0 0 1 163.5,683.85 " fill="#F1F1F1" style="stroke:#181818;stroke-width:0.5;"/><line style="stroke:#181818;stroke-width:0.5;" x1="161" x2="214" y1="704.85" y2="704.85"/><text fill="#000000" font-family="sans-serif" font-size="14" lengthAdjust="spacing" textLength="54" x="171" y="724.8451">Combat</text></g><!--entity ChallengeSystem--><g id="elem_ChallengeSystem"><path d="M351.5,125.85 L392.5,125.85 A3.75,3.75 0 0 1 395,128.35 L402,146.85 L496.5,146.85 A2.5,2.5 0 0 1 499,149.35 L499,177.6469 A2.5,2.5 0 0 1 496.5,180.1469 L351.5,180.1469 A2.5,2.5 0 0 1 349,177.6469 L349,128.35 A2.5,2.5 0 0 1 351.5,125.85 " fill="#F1F1F1" style="stroke:#181818;stroke-width:0.5;"/><line style="stroke:#181818;stroke-width:0.5;" x1="349" x2="402" y1="146.85" y2="146.85"/><text fill="#000000" font-family="sans-serif" font-size="14" lengthAdjust="spacing" textLength="120" x="359" y="166.8451">ChallengeSystem</text></g><!--entity ChallengeManager.cs--><g id="elem_ChallengeManager.cs"><ellipse cx="660" cy="14" fill="#F1F1F1" rx="8" ry="8" style="stroke:#181818;stroke-width:0.5;"/><text fill="#000000" font-family="sans-serif" font-size="14" lengthAdjust="spacing" textLength="149" x="585.5" y="43.9951">ChallengeManager.cs</text></g><!--entity ChallengeSystem.cs--><g id="elem_ChallengeSystem.cs"><ellipse cx="660" cy="107" fill="#F1F1F1" rx="8" ry="8" style="stroke:#181818;stroke-width:0.5;"/><text fill="#000000" font-family="sans-serif" font-size="14" lengthAdjust="spacing" textLength="140" x="590" y="136.9951">ChallengeSystem.cs</text></g><!--entity ProgressionRing.cs--><g id="elem_ProgressionRing.cs"><ellipse cx="660" cy="200" fill="#F1F1F1" rx="8" ry="8" style="stroke:#181818;stroke-width:0.5;"/><text fill="#000000" font-family="sans-serif" font-size="14" lengthAdjust="spacing" textLength="134" x="593" y="229.9951">ProgressionRing.cs</text></g><!--entity CombatSystem--><g id="elem_CombatSystem"><path d="M359,404.85 L400,404.85 A3.75,3.75 0 0 1 402.5,407.35 L409.5,425.85 L489,425.85 A2.5,2.5 0 0 1 491.5,428.35 L491.5,456.6469 A2.5,2.5 0 0 1 489,459.1469 L359,459.1469 A2.5,2.5 0 0 1 356.5,456.6469 L356.5,407.35 A2.5,2.5 0 0 1 359,404.85 " fill="#F1F1F1" style="stroke:#181818;stroke-width:0.5;"/><line style="stroke:#181818;stroke-width:0.5;" x1="356.5" x2="409.5" y1="425.85" y2="425.85"/><text fill="#000000" font-family="sans-serif" font-size="14" lengthAdjust="spacing" textLength="105" x="366.5" y="445.8451">CombatSystem</text></g><!--entity Combatsyste.cs--><g id="elem_Combatsyste.cs"><ellipse cx="660" cy="293" fill="#F1F1F1" rx="8" ry="8" style="stroke:#181818;stroke-width:0.5;"/><text fill="#000000" font-family="sans-serif" font-size="14" lengthAdjust="spacing" textLength="111" x="604.5" y="322.9951">Combatsyste.cs</text></g><!--entity PlayerDamage.cs--><g id="elem_PlayerDamage.cs"><ellipse cx="660" cy="386" fill="#F1F1F1" rx="8" ry="8" style="stroke:#181818;stroke-width:0.5;"/><text fill="#000000" font-family="sans-serif" font-size="14" lengthAdjust="spacing" textLength="119" x="600.5" y="415.9951">PlayerDamage.cs</text></g><!--entity PlayerStates.cs--><g id="elem_PlayerStates.cs"><ellipse cx="660" cy="479" fill="#F1F1F1" rx="8" ry="8" style="stroke:#181818;stroke-width:0.5;"/><text fill="#000000" font-family="sans-serif" font-size="14" lengthAdjust="spacing" textLength="105" x="607.5" y="508.9951">PlayerStates.cs</text></g><!--entity DamageSystem--><g id="elem_DamageSystem"><path d="M357,637.85 L398,637.85 A3.75,3.75 0 0 1 400.5,640.35 L407.5,658.85 L491,658.85 A2.5,2.5 0 0 1 493.5,661.35 L493.5,689.6469 A2.5,2.5 0 0 1 491,692.1469 L357,692.1469 A2.5,2.5 0 0 1 354.5,689.6469 L354.5,640.35 A2.5,2.5 0 0 1 357,637.85 " fill="#F1F1F1" style="stroke:#181818;stroke-width:0.5;"/><line style="stroke:#181818;stroke-width:0.5;" x1="354.5" x2="407.5" y1="658.85" y2="658.85"/><text fill="#000000" font-family="sans-serif" font-size="14" lengthAdjust="spacing" textLength="109" x="364.5" y="678.8451">DamageSystem</text></g><!--entity Billboard.cs--><g id="elem_Billboard.cs"><ellipse cx="660" cy="572" fill="#F1F1F1" rx="8" ry="8" style="stroke:#181818;stroke-width:0.5;"/><text fill="#000000" font-family="sans-serif" font-size="14" lengthAdjust="spacing" textLength="79" x="620.5" y="601.9951">Billboard.cs</text></g><!--entity EnemyController.cs--><g id="elem_EnemyController.cs"><ellipse cx="660" cy="665" fill="#F1F1F1" rx="8" ry="8" style="stroke:#181818;stroke-width:0.5;"/><text fill="#000000" font-family="sans-serif" font-size="14" lengthAdjust="spacing" textLength="134" x="593" y="694.9951">EnemyController.cs</text></g><!--entity Healthbar.cs--><g id="elem_Healthbar.cs"><ellipse cx="660" cy="758" fill="#F1F1F1" rx="8" ry="8" style="stroke:#181818;stroke-width:0.5;"/><text fill="#000000" font-family="sans-serif" font-size="14" lengthAdjust="spacing" textLength="86" x="617" y="787.9951">Healthbar.cs</text></g><!--entity HitController.cs--><g id="elem_HitController.cs"><ellipse cx="660" cy="851" fill="#F1F1F1" rx="8" ry="8" style="stroke:#181818;stroke-width:0.5;"/><text fill="#000000" font-family="sans-serif" font-size="14" lengthAdjust="spacing" textLength="105" x="607.5" y="880.9951">HitController.cs</text></g><!--entity BossTrigger.cs--><g id="elem_BossTrigger.cs"><ellipse cx="424" cy="756" fill="#F1F1F1" rx="8" ry="8" style="stroke:#181818;stroke-width:0.5;"/><text fill="#000000" font-family="sans-serif" font-size="14" lengthAdjust="spacing" textLength="104" x="372" y="785.9951">BossTrigger.cs</text></g><!--entity SwordPos.cs--><g id="elem_SwordPos.cs"><ellipse cx="424" cy="849" fill="#F1F1F1" rx="8" ry="8" style="stroke:#181818;stroke-width:0.5;"/><text fill="#000000" font-family="sans-serif" font-size="14" lengthAdjust="spacing" textLength="89" x="379.5" y="878.9951">SwordPos.cs</text></g><!--entity Enemies--><g id="elem_Enemies"><path d="M160.5,1105.85 L201.5,1105.85 A3.75,3.75 0 0 1 204,1108.35 L211,1126.85 L245.5,1126.85 A2.5,2.5 0 0 1 248,1129.35 L248,1157.6469 A2.5,2.5 0 0 1 245.5,1160.1469 L160.5,1160.1469 A2.5,2.5 0 0 1 158,1157.6469 L158,1108.35 A2.5,2.5 0 0 1 160.5,1105.85 " fill="#F1F1F1" style="stroke:#181818;stroke-width:0.5;"/><line style="stroke:#181818;stroke-width:0.5;" x1="158" x2="211" y1="1126.85" y2="1126.85"/><text fill="#000000" font-family="sans-serif" font-size="14" lengthAdjust="spacing" textLength="60" x="168" y="1146.8451">Enemies</text></g><!--entity scripts--><g id="elem_scripts"><path d="M388.5,1102.85 L429.5,1102.85 A3.75,3.75 0 0 1 432,1105.35 L439,1123.85 L459.5,1123.85 A2.5,2.5 0 0 1 462,1126.35 L462,1154.6469 A2.5,2.5 0 0 1 459.5,1157.1469 L388.5,1157.1469 A2.5,2.5 0 0 1 386,1154.6469 L386,1105.35 A2.5,2.5 0 0 1 388.5,1102.85 " fill="#F1F1F1" style="stroke:#181818;stroke-width:0.5;"/><line style="stroke:#181818;stroke-width:0.5;" x1="386" x2="439" y1="1123.85" y2="1123.85"/><text fill="#000000" font-family="sans-serif" font-size="14" lengthAdjust="spacing" textLength="46" x="396" y="1143.8451">scripts</text></g><!--entity heavy.cs--><g id="elem_heavy.cs"><ellipse cx="660" cy="944" fill="#F1F1F1" rx="8" ry="8" style="stroke:#181818;stroke-width:0.5;"/><text fill="#000000" font-family="sans-serif" font-size="14" lengthAdjust="spacing" textLength="60" x="630" y="973.9951">heavy.cs</text></g><!--entity light.cs--><g id="elem_light.cs"><ellipse cx="660" cy="1037" fill="#F1F1F1" rx="8" ry="8" style="stroke:#181818;stroke-width:0.5;"/><text fill="#000000" font-family="sans-serif" font-size="14" lengthAdjust="spacing" textLength="49" x="635.5" y="1066.9951">light.cs</text></g><!--entity medium.cs--><g id="elem_medium.cs"><ellipse cx="660" cy="1130" fill="#F1F1F1" rx="8" ry="8" style="stroke:#181818;stroke-width:0.5;"/><text fill="#000000" font-family="sans-serif" font-size="14" lengthAdjust="spacing" textLength="76" x="622" y="1159.9951">medium.cs</text></g><!--entity Skeleton_Boss.cs--><g id="elem_Skeleton_Boss.cs"><ellipse cx="660" cy="1223" fill="#F1F1F1" rx="8" ry="8" style="stroke:#181818;stroke-width:0.5;"/><text fill="#000000" font-family="sans-serif" font-size="14" lengthAdjust="spacing" textLength="123" x="598.5" y="1252.9951">Skeleton_Boss.cs</text></g><!--entity StateController.cs--><g id="elem_StateController.cs"><ellipse cx="660" cy="1316" fill="#F1F1F1" rx="8" ry="8" style="stroke:#181818;stroke-width:0.5;"/><text fill="#000000" font-family="sans-serif" font-size="14" lengthAdjust="spacing" textLength="123" x="598.5" y="1345.9951">StateController.cs</text></g><!--entity tutorial_enemy.cs--><g id="elem_tutorial_enemy.cs"><ellipse cx="660" cy="1409" fill="#F1F1F1" rx="8" ry="8" style="stroke:#181818;stroke-width:0.5;"/><text fill="#000000" font-family="sans-serif" font-size="14" lengthAdjust="spacing" textLength="121" x="599.5" y="1438.9951">tutorial_enemy.cs</text></g><!--entity Fog--><g id="elem_Fog"><path d="M170.5,1197.85 L211.5,1197.85 A3.75,3.75 0 0 1 214,1200.35 L221,1218.85 L235.5,1218.85 A2.5,2.5 0 0 1 238,1221.35 L238,1249.6469 A2.5,2.5 0 0 1 235.5,1252.1469 L170.5,1252.1469 A2.5,2.5 0 0 1 168,1249.6469 L168,1200.35 A2.5,2.5 0 0 1 170.5,1197.85 " fill="#F1F1F1" style="stroke:#181818;stroke-width:0.5;"/><line style="stroke:#181818;stroke-width:0.5;" x1="168" x2="221" y1="1218.85" y2="1218.85"/><text fill="#000000" font-family="sans-serif" font-size="14" lengthAdjust="spacing" textLength="26" x="178" y="1238.8451">Fog</text></g><!--entity Movement--><g id="elem_Movement"><path d="M154,1286.85 L195,1286.85 A3.75,3.75 0 0 1 197.5,1289.35 L204.5,1307.85 L252,1307.85 A2.5,2.5 0 0 1 254.5,1310.35 L254.5,1338.6469 A2.5,2.5 0 0 1 252,1341.1469 L154,1341.1469 A2.5,2.5 0 0 1 151.5,1338.6469 L151.5,1289.35 A2.5,2.5 0 0 1 154,1286.85 " fill="#F1F1F1" style="stroke:#181818;stroke-width:0.5;"/><line style="stroke:#181818;stroke-width:0.5;" x1="151.5" x2="204.5" y1="1307.85" y2="1307.85"/><text fill="#000000" font-family="sans-serif" font-size="14" lengthAdjust="spacing" textLength="73" x="161.5" y="1327.8451">Movement</text></g><!--entity WaypointFollower.cs--><g id="elem_WaypointFollower.cs"><ellipse cx="424" cy="1221" fill="#F1F1F1" rx="8" ry="8" style="stroke:#181818;stroke-width:0.5;"/><text fill="#000000" font-family="sans-serif" font-size="14" lengthAdjust="spacing" textLength="140" x="354" y="1250.9951">WaypointFollower.cs</text></g><!--entity WaypointManager.cs--><g id="elem_WaypointManager.cs"><ellipse cx="424" cy="1314" fill="#F1F1F1" rx="8" ry="8" style="stroke:#181818;stroke-width:0.5;"/><text fill="#000000" font-family="sans-serif" font-size="14" lengthAdjust="spacing" textLength="143" x="352.5" y="1343.9951">WaypointManager.cs</text></g><!--entity SceneManager--><g id="elem_SceneManager"><path d="M138.5,1426.85 L179.5,1426.85 A3.75,3.75 0 0 1 182,1429.35 L189,1447.85 L267.5,1447.85 A2.5,2.5 0 0 1 270,1450.35 L270,1478.6469 A2.5,2.5 0 0 1 267.5,1481.1469 L138.5,1481.1469 A2.5,2.5 0 0 1 136,1478.6469 L136,1429.35 A2.5,2.5 0 0 1 138.5,1426.85 " fill="#F1F1F1" style="stroke:#181818;stroke-width:0.5;"/><line style="stroke:#181818;stroke-width:0.5;" x1="136" x2="189" y1="1447.85" y2="1447.85"/><text fill="#000000" font-family="sans-serif" font-size="14" lengthAdjust="spacing" textLength="104" x="146" y="1467.8451">SceneManager</text></g><!--entity DelaySceneChanger.cs--><g id="elem_DelaySceneChanger.cs"><ellipse cx="424" cy="1407" fill="#F1F1F1" rx="8" ry="8" style="stroke:#181818;stroke-width:0.5;"/><text fill="#000000" font-family="sans-serif" font-size="14" lengthAdjust="spacing" textLength="161" x="343.5" y="1436.9951">DelaySceneChanger.cs</text></g><!--entity Quit.cs--><g id="elem_Quit.cs"><ellipse cx="424" cy="1500" fill="#F1F1F1" rx="8" ry="8" style="stroke:#181818;stroke-width:0.5;"/><text fill="#000000" font-family="sans-serif" font-size="14" lengthAdjust="spacing" textLength="48" x="400" y="1529.9951">Quit.cs</text></g><!--entity SceneLoader.cs--><g id="elem_SceneLoader.cs"><ellipse cx="424" cy="1593" fill="#F1F1F1" rx="8" ry="8" style="stroke:#181818;stroke-width:0.5;"/><text fill="#000000" font-family="sans-serif" font-size="14" lengthAdjust="spacing" textLength="111" x="368.5" y="1622.9951">SceneLoader.cs</text></g><!--entity Sound--><g id="elem_Sound"><path d="M168,1844.85 L209,1844.85 A3.75,3.75 0 0 1 211.5,1847.35 L218.5,1865.85 L238,1865.85 A2.5,2.5 0 0 1 240.5,1868.35 L240.5,1896.6469 A2.5,2.5 0 0 1 238,1899.1469 L168,1899.1469 A2.5,2.5 0 0 1 165.5,1896.6469 L165.5,1847.35 A2.5,2.5 0 0 1 168,1844.85 " fill="#F1F1F1" style="stroke:#181818;stroke-width:0.5;"/><line style="stroke:#181818;stroke-width:0.5;" x1="165.5" x2="218.5" y1="1865.85" y2="1865.85"/><text fill="#000000" font-family="sans-serif" font-size="14" lengthAdjust="spacing" textLength="45" x="175.5" y="1885.8451">Sound</text></g><!--entity AudioEffectsManager.cs--><g id="elem_AudioEffectsManager.cs"><ellipse cx="424" cy="1686" fill="#F1F1F1" rx="8" ry="8" style="stroke:#181818;stroke-width:0.5;"/><text fill="#000000" font-family="sans-serif" font-size="14" lengthAdjust="spacing" textLength="166" x="341" y="1715.9951">AudioEffectsManager.cs</text></g><!--entity GameEffectsManager.cs--><g id="elem_GameEffectsManager.cs"><ellipse cx="424" cy="1779" fill="#F1F1F1" rx="8" ry="8" style="stroke:#181818;stroke-width:0.5;"/><text fill="#000000" font-family="sans-serif" font-size="14" lengthAdjust="spacing" textLength="168" x="340" y="1808.9951">GameEffectsManager.cs</text></g><!--entity MusicManager.cs--><g id="elem_MusicManager.cs"><ellipse cx="424" cy="1872" fill="#F1F1F1" rx="8" ry="8" style="stroke:#181818;stroke-width:0.5;"/><text fill="#000000" font-family="sans-serif" font-size="14" lengthAdjust="spacing" textLength="120" x="364" y="1901.9951">MusicManager.cs</text></g><!--entity PlayButtonSound.cs--><g id="elem_PlayButtonSound.cs"><ellipse cx="424" cy="1965" fill="#F1F1F1" rx="8" ry="8" style="stroke:#181818;stroke-width:0.5;"/><text fill="#000000" font-family="sans-serif" font-size="14" lengthAdjust="spacing" textLength="139" x="354.5" y="1994.9951">PlayButtonSound.cs</text></g><!--entity SoundEffectsManager.cs--><g id="elem_SoundEffectsManager.cs"><ellipse cx="424" cy="2058" fill="#F1F1F1" rx="8" ry="8" style="stroke:#181818;stroke-width:0.5;"/><text fill="#000000" font-family="sans-serif" font-size="14" lengthAdjust="spacing" textLength="172" x="338" y="2087.9951">SoundEffectsManager.cs</text></g><!--entity Volumesettings.cs--><g id="elem_Volumesettings.cs"><ellipse cx="424" cy="2151" fill="#F1F1F1" rx="8" ry="8" style="stroke:#181818;stroke-width:0.5;"/><text fill="#000000" font-family="sans-serif" font-size="14" lengthAdjust="spacing" textLength="128" x="360" y="2180.9951">Volumesettings.cs</text></g><!--entity Tutorial--><g id="elem_Tutorial"><path d="M165,2074.85 L206,2074.85 A3.75,3.75 0 0 1 208.5,2077.35 L215.5,2095.85 L241,2095.85 A2.5,2.5 0 0 1 243.5,2098.35 L243.5,2126.6469 A2.5,2.5 0 0 1 241,2129.1469 L165,2129.1469 A2.5,2.5 0 0 1 162.5,2126.6469 L162.5,2077.35 A2.5,2.5 0 0 1 165,2074.85 " fill="#F1F1F1" style="stroke:#181818;stroke-width:0.5;"/><line style="stroke:#181818;stroke-width:0.5;" x1="162.5" x2="215.5" y1="2095.85" y2="2095.85"/><text fill="#000000" font-family="sans-serif" font-size="14" lengthAdjust="spacing" textLength="51" x="172.5" y="2115.8451">Tutorial</text></g><!--entity Tutorial.cs--><g id="elem_Tutorial.cs"><ellipse cx="424" cy="2244" fill="#F1F1F1" rx="8" ry="8" style="stroke:#181818;stroke-width:0.5;"/><text fill="#000000" font-family="sans-serif" font-size="14" lengthAdjust="spacing" textLength="71" x="388.5" y="2273.9951">Tutorial.cs</text></g><!--link Own to Combat--><g id="link_Own_Combat"><path d="M49.29,1286.52 C75.95,1186.07 166.4009,845.1592 193.1309,744.4392 " fill="none" id="Own-to-Combat" style="stroke:#181818;stroke-width:1.0;"/><polygon fill="#181818" points="194.67,738.64,188.4952,746.3128,193.3875,743.4727,196.2276,748.3649,194.67,738.64" style="stroke:#181818;stroke-width:1.0;"/></g><!--link Combat to ChallengeSystem--><g id="link_Combat_ChallengeSystem"><path d="M214.55,683.66 C236.11,627.86 286.83,496.81 330,387 C359.43,312.14 392.3732,229.5815 409.8232,185.9215 " fill="none" id="Combat-to-ChallengeSystem" style="stroke:#181818;stroke-width:1.0;"/><polygon fill="#181818" points="412.05,180.35,404.9955,187.2227,410.1943,184.9929,412.4241,190.1917,412.05,180.35" style="stroke:#181818;stroke-width:1.0;"/></g><!--link ChallengeSystem to ChallengeManager.cs--><g id="link_ChallengeSystem_ChallengeManager.cs"><path d="M469.64,125.38 C500.05,106.69 541.29,81.58 578,60 C604.77,44.27 631.7073,29.1779 646.1173,21.1579 " fill="none" id="ChallengeSystem-to-ChallengeManager.cs" style="stroke:#181818;stroke-width:1.0;"/><polygon fill="#181818" points="651.36,18.24,641.5507,19.1217,646.9911,20.6716,645.4412,26.1119,651.36,18.24" style="stroke:#181818;stroke-width:1.0;"/></g><!--link ChallengeSystem to ChallengeSystem.cs--><g id="link_ChallengeSystem_ChallengeSystem.cs"><path d="M499.36,138.38 C555.83,127.28 621.7726,114.3169 645.2826,109.6969 " fill="none" id="ChallengeSystem-to-ChallengeSystem.cs" style="stroke:#181818;stroke-width:1.0;"/><polygon fill="#181818" points="651.17,108.54,641.5676,106.3505,646.2638,109.5041,643.1102,114.2004,651.17,108.54" style="stroke:#181818;stroke-width:1.0;"/></g><!--link ChallengeSystem to ProgressionRing.cs--><g id="link_ChallengeSystem_ProgressionRing.cs"><path d="M499.36,167.94 C555.83,179.28 621.7774,192.529 645.2874,197.249 " fill="none" id="ChallengeSystem-to-ProgressionRing.cs" style="stroke:#181818;stroke-width:1.0;"/><polygon fill="#181818" points="651.17,198.43,643.1334,192.7367,646.2678,197.4458,641.5587,200.5802,651.17,198.43" style="stroke:#181818;stroke-width:1.0;"/></g><!--link Combat to CombatSystem--><g id="link_Combat_CombatSystem"><path d="M225.6,683.48 C267.58,630.01 356.0156,517.3399 397.8556,464.0299 " fill="none" id="Combat-to-CombatSystem" style="stroke:#181818;stroke-width:1.0;"/><polygon fill="#181818" points="401.56,459.31,392.8568,463.9203,398.473,463.2433,399.15,468.8595,401.56,459.31" style="stroke:#181818;stroke-width:1.0;"/></g><!--link CombatSystem to Combatsyste.cs--><g id="link_CombatSystem_Combatsyste.cs"><path d="M469.64,404.38 C500.05,385.69 541.29,360.58 578,339 C604.77,323.27 631.7073,308.1779 646.1173,300.1579 " fill="none" id="CombatSystem-to-Combatsyste.cs" style="stroke:#181818;stroke-width:1.0;"/><polygon fill="#181818" points="651.36,297.24,641.5507,298.1217,646.9911,299.6716,645.4412,305.1119,651.36,297.24" style="stroke:#181818;stroke-width:1.0;"/></g><!--link CombatSystem to PlayerDamage.cs--><g id="link_CombatSystem_PlayerDamage.cs"><path d="M491.74,418.88 C549.29,407.57 620.9729,393.4786 645.4129,388.6686 " fill="none" id="CombatSystem-to-PlayerDamage.cs" style="stroke:#181818;stroke-width:1.0;"/><polygon fill="#181818" points="651.3,387.51,641.697,385.3232,646.3941,388.4755,643.2418,393.1727,651.3,387.51" style="stroke:#181818;stroke-width:1.0;"/></g><!--link CombatSystem to PlayerStates.cs--><g id="link_CombatSystem_PlayerStates.cs"><path d="M491.74,445.41 C549.29,456.96 620.9771,471.3705 645.4171,476.2705 " fill="none" id="CombatSystem-to-PlayerStates.cs" style="stroke:#181818;stroke-width:1.0;"/><polygon fill="#181818" points="651.3,477.45,643.2619,471.7588,646.3976,476.4671,641.6893,479.6027,651.3,477.45" style="stroke:#181818;stroke-width:1.0;"/></g><!--link Combat to DamageSystem--><g id="link_Combat_DamageSystem"><path d="M245.45,702.29 C276.08,695.86 312.608,688.1827 348.288,680.6927 " fill="none" id="Combat-to-DamageSystem" style="stroke:#181818;stroke-width:1.0;"/><polygon fill="#181818" points="354.16,679.46,344.5302,677.3943,349.2667,680.4872,346.1738,685.2237,354.16,679.46" style="stroke:#181818;stroke-width:1.0;"/></g><!--link DamageSystem to Billboard.cs--><g id="link_DamageSystem_Billboard.cs"><path d="M493.94,637.6 C551.1,614.88 621.2146,587.0169 645.5346,577.3469 " fill="none" id="DamageSystem-to-Billboard.cs" style="stroke:#181818;stroke-width:1.0;"/><polygon fill="#181818" points="651.11,575.13,641.2689,574.7384,646.4638,576.9774,644.2248,582.1723,651.11,575.13" style="stroke:#181818;stroke-width:1.0;"/></g><!--link DamageSystem to EnemyController.cs--><g id="link_DamageSystem_EnemyController.cs"><path d="M493.94,665 C551.1,665 620.79,665 645.11,665 " fill="none" id="DamageSystem-to-EnemyController.cs" style="stroke:#181818;stroke-width:1.0;"/><polygon fill="#181818" points="651.11,665,642.11,661,646.11,665,642.11,669,651.11,665" style="stroke:#181818;stroke-width:1.0;"/></g><!--link DamageSystem to Healthbar.cs--><g id="link_DamageSystem_Healthbar.cs"><path d="M493.94,692.4 C551.1,715.12 621.2146,742.9831 645.5346,752.6531 " fill="none" id="DamageSystem-to-Healthbar.cs" style="stroke:#181818;stroke-width:1.0;"/><polygon fill="#181818" points="651.11,754.87,644.2248,747.8277,646.4638,753.0226,641.2689,755.2616,651.11,754.87" style="stroke:#181818;stroke-width:1.0;"/></g><!--link DamageSystem to HitController.cs--><g id="link_DamageSystem_HitController.cs"><path d="M493.84,692.01 C502.47,696.95 510.78,702.61 518,709 C555.39,742.1 542.03,769.36 578,804 C600.72,825.88 629.9638,839.3253 645.4938,845.6553 " fill="none" id="DamageSystem-to-HitController.cs" style="stroke:#181818;stroke-width:1.0;"/><polygon fill="#181818" points="651.05,847.92,644.2255,840.8188,646.4198,846.0328,641.2059,848.2271,651.05,847.92" style="stroke:#181818;stroke-width:1.0;"/></g><!--link Combat to BossTrigger.cs--><g id="link_Combat_BossTrigger.cs"><path d="M245.45,719.52 C299.02,730.52 382.7127,747.7228 409.3927,753.2028 " fill="none" id="Combat-to-BossTrigger.cs" style="stroke:#181818;stroke-width:1.0;"/><polygon fill="#181818" points="415.27,754.41,407.2588,748.681,410.3722,753.404,405.6493,756.5174,415.27,754.41" style="stroke:#181818;stroke-width:1.0;"/></g><!--link Combat to SwordPos.cs--><g id="link_Combat_SwordPos.cs"><path d="M239.09,738.63 C263.81,757.53 298.08,782.57 330,802 C360.29,820.43 393.2325,835.7411 409.5825,843.0511 " fill="none" id="Combat-to-SwordPos.cs" style="stroke:#181818;stroke-width:1.0;"/><polygon fill="#181818" points="415.06,845.5,408.4764,838.1749,410.4954,843.4592,405.2112,845.4782,415.06,845.5" style="stroke:#181818;stroke-width:1.0;"/></g><!--link Own to Enemies--><g id="link_Own_Enemies"><path d="M57.44,1286.55 C74.36,1257.93 103.46,1212.77 136,1180 C142.84,1173.11 145.9842,1170.1123 153.9442,1164.1623 " fill="none" id="Own-to-Enemies" style="stroke:#181818;stroke-width:1.0;"/><polygon fill="#181818" points="158.75,1160.57,149.1465,1162.7545,154.7452,1163.5636,153.9362,1169.1623,158.75,1160.57" style="stroke:#181818;stroke-width:1.0;"/></g><!--link Enemies to scripts--><g id="link_Enemies_scripts"><path d="M248.32,1132.39 C288.69,1131.84 341.6406,1131.112 379.6706,1130.592 " fill="none" id="Enemies-to-scripts" style="stroke:#181818;stroke-width:1.0;"/><polygon fill="#181818" points="385.67,1130.51,376.6162,1126.6334,380.6705,1130.5784,376.7255,1134.6327,385.67,1130.51" style="stroke:#181818;stroke-width:1.0;"/></g><!--link scripts to heavy.cs--><g id="link_scripts_heavy.cs"><path d="M451.31,1102.48 C480.58,1072.71 530.1,1024.83 578,990 C603.11,971.74 630.7199,957.6051 645.6499,950.3751 " fill="none" id="scripts-to-heavy.cs" style="stroke:#181818;stroke-width:1.0;"/><polygon fill="#181818" points="651.05,947.76,641.2064,948.0825,646.5499,949.9392,644.6932,955.2827,651.05,947.76" style="stroke:#181818;stroke-width:1.0;"/></g><!--link scripts to light.cs--><g id="link_scripts_light.cs"><path d="M462.34,1115.16 C518.59,1092.8 616.0737,1054.0546 645.4337,1042.3946 " fill="none" id="scripts-to-light.cs" style="stroke:#181818;stroke-width:1.0;"/><polygon fill="#181818" points="651.01,1040.18,641.1691,1039.7843,646.363,1042.0255,644.1219,1047.2194,651.01,1040.18" style="stroke:#181818;stroke-width:1.0;"/></g><!--link scripts to medium.cs--><g id="link_scripts_medium.cs"><path d="M462.34,1130 C518.59,1130 615.65,1130 645.01,1130 " fill="none" id="scripts-to-medium.cs" style="stroke:#181818;stroke-width:1.0;"/><polygon fill="#181818" points="651.01,1130,642.01,1126,646.01,1130,642.01,1134,651.01,1130" style="stroke:#181818;stroke-width:1.0;"/></g><!--link scripts to Skeleton_Boss.cs--><g id="link_scripts_Skeleton_Boss.cs"><path d="M462.34,1144.84 C518.59,1167.2 616.0737,1205.9454 645.4337,1217.6054 " fill="none" id="scripts-to-Skeleton_Boss.cs" style="stroke:#181818;stroke-width:1.0;"/><polygon fill="#181818" points="651.01,1219.82,644.1219,1212.7806,646.363,1217.9745,641.1691,1220.2157,651.01,1219.82" style="stroke:#181818;stroke-width:1.0;"/></g><!--link scripts to StateController.cs--><g id="link_scripts_StateController.cs"><path d="M462.27,1142.03 C480.51,1149.24 501.95,1159.79 518,1174 C555.39,1207.1 542.03,1234.36 578,1269 C600.72,1290.88 629.9638,1304.3253 645.4938,1310.6553 " fill="none" id="scripts-to-StateController.cs" style="stroke:#181818;stroke-width:1.0;"/><polygon fill="#181818" points="651.05,1312.92,644.2255,1305.8188,646.4198,1311.0328,641.2059,1313.2271,651.05,1312.92" style="stroke:#181818;stroke-width:1.0;"/></g><!--link scripts to tutorial_enemy.cs--><g id="link_scripts_tutorial_enemy.cs"><path d="M462.04,1139.74 C481.14,1146.49 503.41,1157.33 518,1174 C575.76,1240 523.06,1293.63 578,1362 C597.96,1386.84 629.1451,1399.3011 645.3351,1404.6711 " fill="none" id="scripts-to-tutorial_enemy.cs" style="stroke:#181818;stroke-width:1.0;"/><polygon fill="#181818" points="651.03,1406.56,643.7469,1399.93,646.2842,1404.9859,641.2284,1407.5232,651.03,1406.56" style="stroke:#181818;stroke-width:1.0;"/></g><!--link Own to Fog--><g id="link_Own_Fog"><path d="M76.32,1294.91 C103.32,1279.89 135.5068,1261.987 162.4868,1246.977 " fill="none" id="Own-to-Fog" style="stroke:#181818;stroke-width:1.0;"/><polygon fill="#181818" points="167.73,1244.06,157.9205,1244.94,163.3607,1246.4908,161.8099,1251.931,167.73,1244.06" style="stroke:#181818;stroke-width:1.0;"/></g><!--link Own to Movement--><g id="link_Own_Movement"><path d="M76.32,1314 C98.09,1314 120.63,1314 145.01,1314 " fill="none" id="Own-to-Movement" style="stroke:#181818;stroke-width:1.0;"/><polygon fill="#181818" points="151.01,1314,142.01,1310,146.01,1314,142.01,1318,151.01,1314" style="stroke:#181818;stroke-width:1.0;"/></g><!--link Movement to WaypointFollower.cs--><g id="link_Movement_WaypointFollower.cs"><path d="M254.79,1292.43 C308.87,1269.46 384.5576,1237.3258 409.7476,1226.6258 " fill="none" id="Movement-to-WaypointFollower.cs" style="stroke:#181818;stroke-width:1.0;"/><polygon fill="#181818" points="415.27,1224.28,405.4225,1224.117,410.668,1226.2348,408.5502,1231.4803,415.27,1224.28" style="stroke:#181818;stroke-width:1.0;"/></g><!--link Movement to WaypointManager.cs--><g id="link_Movement_WaypointManager.cs"><path d="M254.79,1314 C308.87,1314 384.08,1314 409.27,1314 " fill="none" id="Movement-to-WaypointManager.cs" style="stroke:#181818;stroke-width:1.0;"/><polygon fill="#181818" points="415.27,1314,406.27,1310,410.27,1314,406.27,1318,415.27,1314" style="stroke:#181818;stroke-width:1.0;"/></g><!--link Own to SceneManager--><g id="link_Own_SceneManager"><path d="M73.23,1341.33 C101.33,1365.91 137.9045,1397.909 166.0645,1422.549 " fill="none" id="Own-to-SceneManager" style="stroke:#181818;stroke-width:1.0;"/><polygon fill="#181818" points="170.58,1426.5,166.4408,1417.5632,166.8171,1423.2075,161.1728,1423.5838,170.58,1426.5" style="stroke:#181818;stroke-width:1.0;"/></g><!--link SceneManager to DelaySceneChanger.cs--><g id="link_SceneManager_DelaySceneChanger.cs"><path d="M270.3,1439.77 C323.18,1428.42 386.1939,1414.9003 409.2339,1409.9503 " fill="none" id="SceneManager-to-DelaySceneChanger.cs" style="stroke:#181818;stroke-width:1.0;"/><polygon fill="#181818" points="415.1,1408.69,405.4606,1406.6697,410.2115,1409.7403,407.141,1414.4912,415.1,1408.69" style="stroke:#181818;stroke-width:1.0;"/></g><!--link SceneManager to Quit.cs--><g id="link_SceneManager_Quit.cs"><path d="M270.3,1467.93 C323.18,1479.03 386.1882,1492.2665 409.2282,1497.1065 " fill="none" id="SceneManager-to-Quit.cs" style="stroke:#181818;stroke-width:1.0;"/><polygon fill="#181818" points="415.1,1498.34,407.1146,1492.5752,410.2068,1497.3121,405.4699,1500.4043,415.1,1498.34" style="stroke:#181818;stroke-width:1.0;"/></g><!--link SceneManager to SceneLoader.cs--><g id="link_SceneManager_SceneLoader.cs"><path d="M238.51,1481.56 C263.26,1500.73 297.77,1526.27 330,1546 C360.24,1564.51 393.2095,1579.7879 409.5695,1587.0779 " fill="none" id="SceneManager-to-SceneLoader.cs" style="stroke:#181818;stroke-width:1.0;"/><polygon fill="#181818" points="415.05,1589.52,408.4573,1582.2032,410.4829,1587.4849,405.2011,1589.5105,415.05,1589.52" style="stroke:#181818;stroke-width:1.0;"/></g><!--link Own to Sound--><g id="link_Own_Sound"><path d="M49.83,1341.29 C76.96,1435.93 165.1861,1743.6025 192.4461,1838.6625 " fill="none" id="Own-to-Sound" style="stroke:#181818;stroke-width:1.0;"/><polygon fill="#181818" points="194.1,1844.43,195.4641,1834.6761,192.7217,1839.6237,187.7741,1836.8813,194.1,1844.43" style="stroke:#181818;stroke-width:1.0;"/></g><!--link Sound to AudioEffectsManager.cs--><g id="link_Sound_AudioEffectsManager.cs"><path d="M223.73,1844.42 C246.61,1813.92 286.74,1764.79 330,1732 C358.42,1710.45 392.8651,1696.7536 409.5751,1690.7336 " fill="none" id="Sound-to-AudioEffectsManager.cs" style="stroke:#181818;stroke-width:1.0;"/><polygon fill="#181818" points="415.22,1688.7,405.397,1687.9872,410.516,1690.3947,408.1085,1695.5137,415.22,1688.7" style="stroke:#181818;stroke-width:1.0;"/></g><!--link Sound to GameEffectsManager.cs--><g id="link_Sound_GameEffectsManager.cs"><path d="M240.66,1856.43 C293.5,1833.99 382.2578,1796.3063 409.7478,1784.6263 " fill="none" id="Sound-to-GameEffectsManager.cs" style="stroke:#181818;stroke-width:1.0;"/><polygon fill="#181818" points="415.27,1782.28,405.4225,1782.118,410.6681,1784.2352,408.5509,1789.4809,415.27,1782.28" style="stroke:#181818;stroke-width:1.0;"/></g><!--link Sound to MusicManager.cs--><g id="link_Sound_MusicManager.cs"><path d="M240.66,1872 C293.5,1872 381.78,1872 409.27,1872 " fill="none" id="Sound-to-MusicManager.cs" style="stroke:#181818;stroke-width:1.0;"/><polygon fill="#181818" points="415.27,1872,406.27,1868,410.27,1872,406.27,1876,415.27,1872" style="stroke:#181818;stroke-width:1.0;"/></g><!--link Sound to PlayButtonSound.cs--><g id="link_Sound_PlayButtonSound.cs"><path d="M240.66,1887.57 C293.5,1910.01 382.2578,1947.6937 409.7478,1959.3737 " fill="none" id="Sound-to-PlayButtonSound.cs" style="stroke:#181818;stroke-width:1.0;"/><polygon fill="#181818" points="415.27,1961.72,408.5509,1954.5191,410.6681,1959.7648,405.4225,1961.882,415.27,1961.72" style="stroke:#181818;stroke-width:1.0;"/></g><!--link Sound to SoundEffectsManager.cs--><g id="link_Sound_SoundEffectsManager.cs"><path d="M224.03,1899.58 C247.03,1929.81 287.13,1978.33 330,2011 C358.49,2032.71 392.9211,2046.8458 409.6111,2053.0958 " fill="none" id="Sound-to-SoundEffectsManager.cs" style="stroke:#181818;stroke-width:1.0;"/><polygon fill="#181818" points="415.23,2055.2,408.2044,2048.2978,410.5475,2053.4465,405.3988,2055.7897,415.23,2055.2" style="stroke:#181818;stroke-width:1.0;"/></g><!--link Sound to Volumesettings.cs--><g id="link_Sound_Volumesettings.cs"><path d="M212.73,1899.33 C229,1946.48 268.01,2043.82 330,2104 C355.83,2129.08 391.9532,2141.8453 409.3132,2147.0553 " fill="none" id="Sound-to-Volumesettings.cs" style="stroke:#181818;stroke-width:1.0;"/><polygon fill="#181818" points="415.06,2148.78,407.5896,2142.3618,410.271,2147.3428,405.29,2150.0241,415.06,2148.78" style="stroke:#181818;stroke-width:1.0;"/></g><!--link Own to Tutorial--><g id="link_Own_Tutorial"><path d="M44.42,1341.41 C52.4,1427.35 80.59,1698.78 136,1917 C150.56,1974.35 173.4152,2033.3921 188.1052,2069.0621 " fill="none" id="Own-to-Tutorial" style="stroke:#181818;stroke-width:1.0;"/><polygon fill="#181818" points="190.39,2074.61,190.6614,2064.7649,188.486,2069.9867,183.2642,2067.8113,190.39,2074.61" style="stroke:#181818;stroke-width:1.0;"/></g><!--link Tutorial to Tutorial.cs--><g id="link_Tutorial_Tutorial.cs"><path d="M237.06,2129.5 C261.82,2149.45 296.98,2176.44 330,2197 C360.1,2215.74 393.1268,2230.9265 409.5368,2238.1365 " fill="none" id="Tutorial-to-Tutorial.cs" style="stroke:#181818;stroke-width:1.0;"/><polygon fill="#181818" points="415.03,2240.55,408.3993,2233.2676,410.4524,2238.5387,405.1812,2240.5918,415.03,2240.55" style="stroke:#181818;stroke-width:1.0;"/></g><!--SRC=[VPJ1RjmW48RlF8LlFIMFKAcR9ksXgspgA3r6h3rhem2pWY4hltq16nkypagMFFFz0yp0mBUg1ggeXqho0HrLhJ3Ga41T4Vhl77v794B599mek4PqVHR8s0bb2wPwlYps0weZ9-PHTNVtFRcpsdCfGNTG3vP0iL4U8rSIMu4oQCyrxy3SD_PstCY-2ZiOx0nOwulvAtGNmiewDjBCESkzJBO1n4NN-i7lDfYVNFdiRmJKn0bidiyuv3gVWhFSY_9EI7b4RjemrvNwg44D3wZ9eDyRindp6xYa_iY_K0MLu_FSTcZjgs-QT52BKb_Gj0SiAWp92B1pwoG_wROnuaoMJJp69COc8y8U-ESGPiwX3BsxXWfQuTIQrXyWWL2_X_oln70oPScvJ8xG22xV8MnjNjuJTdDfmKvyZv-WG2zNPWOiMH7_uyCPXQOdlovUnfKt0xAhaTQe6v_EnETr2iXoRsmiy9qOgRyvUfhmAkh52TeK8lY3l5rbWawtImhHO_4NmG_N2dmydVm3OxCwbe1VNC4jVU-iQ3QLSB5sphzdEh9IZDQjUTzGEWKMYFmxKRJjwtJYSr4pOCagi1_x7m00]--></g><text x="98%" y="98%" text-anchor="end" font-size="5vh" fill="#cccccc" opacity="0.5" transform="translate(-10,-10)" font-family="Roboto, Arial, Helvetica, sans-serif">pladitor.com</text></svg>